<mxfile host="app.diagrams.net" modified="2021-10-01T14:16:25.864Z" agent="5.0 (Windows NT 10.0; Win64; x64) AppleWebKit/537.36 (KHTML, like Gecko) Chrome/94.0.4606.61 Safari/537.36" etag="g6b8xZg6yyGH7KBAhG_o" version="15.4.0" type="github">
  <diagram id="efnQxXfEBxXpbUYj1lGG" name="Page-1">
    <mxGraphModel dx="1389" dy="882" grid="1" gridSize="10" guides="1" tooltips="1" connect="1" arrows="1" fold="1" page="1" pageScale="1" pageWidth="850" pageHeight="1100" math="0" shadow="0">
      <root>
        <mxCell id="0" />
        <mxCell id="1" parent="0" />
        <mxCell id="tfGoTublKIeqiAUev1k0-36" value="" style="endArrow=none;dashed=1;html=1;dashPattern=1 3;strokeWidth=2;" edge="1" parent="1">
          <mxGeometry width="50" height="50" relative="1" as="geometry">
            <mxPoint x="710" y="524.5" as="sourcePoint" />
            <mxPoint x="710" y="394.5" as="targetPoint" />
          </mxGeometry>
        </mxCell>
        <mxCell id="tfGoTublKIeqiAUev1k0-10" value="" style="endArrow=none;dashed=1;html=1;dashPattern=1 3;strokeWidth=2;" edge="1" parent="1">
          <mxGeometry width="50" height="50" relative="1" as="geometry">
            <mxPoint x="309.58" y="525" as="sourcePoint" />
            <mxPoint x="309.58" y="395" as="targetPoint" />
          </mxGeometry>
        </mxCell>
        <mxCell id="tfGoTublKIeqiAUev1k0-1" value="" style="rounded=0;whiteSpace=wrap;html=1;" vertex="1" parent="1">
          <mxGeometry x="680" y="210" width="280" height="75" as="geometry" />
        </mxCell>
        <mxCell id="H4YTOPenemWSvNGpPT6h-17" value="SPI" style="edgeStyle=orthogonalEdgeStyle;rounded=0;orthogonalLoop=1;jettySize=auto;html=1;exitX=0.5;exitY=1;exitDx=0;exitDy=0;entryX=0.5;entryY=0;entryDx=0;entryDy=0;startArrow=classic;startFill=1;endArrow=none;endFill=0;" parent="1" source="H4YTOPenemWSvNGpPT6h-1" target="H4YTOPenemWSvNGpPT6h-16" edge="1">
          <mxGeometry relative="1" as="geometry" />
        </mxCell>
        <mxCell id="H4YTOPenemWSvNGpPT6h-49" style="edgeStyle=orthogonalEdgeStyle;rounded=0;orthogonalLoop=1;jettySize=auto;html=1;exitX=1;exitY=0.75;exitDx=0;exitDy=0;entryX=0;entryY=0.5;entryDx=0;entryDy=0;startArrow=none;startFill=0;endArrow=classic;endFill=1;" parent="1" source="H4YTOPenemWSvNGpPT6h-1" target="H4YTOPenemWSvNGpPT6h-38" edge="1">
          <mxGeometry relative="1" as="geometry">
            <Array as="points">
              <mxPoint x="610" y="488" />
              <mxPoint x="610" y="600" />
            </Array>
          </mxGeometry>
        </mxCell>
        <mxCell id="tfGoTublKIeqiAUev1k0-29" value="SPI" style="edgeStyle=orthogonalEdgeStyle;rounded=0;orthogonalLoop=1;jettySize=auto;html=1;exitX=1;exitY=0.5;exitDx=0;exitDy=0;entryX=0;entryY=0.5;entryDx=0;entryDy=0;startArrow=classic;startFill=1;endArrow=classic;endFill=1;" edge="1" parent="1" source="H4YTOPenemWSvNGpPT6h-1" target="tfGoTublKIeqiAUev1k0-28">
          <mxGeometry relative="1" as="geometry" />
        </mxCell>
        <mxCell id="H4YTOPenemWSvNGpPT6h-1" value="ESP32" style="rounded=1;whiteSpace=wrap;html=1;fillColor=#fff2cc;strokeColor=#d6b656;" parent="1" vertex="1">
          <mxGeometry x="450" y="405" width="120" height="110" as="geometry" />
        </mxCell>
        <mxCell id="H4YTOPenemWSvNGpPT6h-8" value="DC-DC Converter&lt;br&gt;3.3V" style="rounded=1;whiteSpace=wrap;html=1;fillColor=#f8cecc;strokeColor=#b85450;" parent="1" vertex="1">
          <mxGeometry x="250" y="275" width="120" height="60" as="geometry" />
        </mxCell>
        <mxCell id="tfGoTublKIeqiAUev1k0-24" style="edgeStyle=orthogonalEdgeStyle;rounded=0;orthogonalLoop=1;jettySize=auto;html=1;exitX=0.5;exitY=1;exitDx=0;exitDy=0;entryX=0;entryY=0.25;entryDx=0;entryDy=0;startArrow=classic;startFill=1;endArrow=classic;endFill=1;" edge="1" parent="1" source="H4YTOPenemWSvNGpPT6h-11" target="H4YTOPenemWSvNGpPT6h-1">
          <mxGeometry relative="1" as="geometry">
            <Array as="points">
              <mxPoint x="110" y="370" />
              <mxPoint x="410" y="370" />
              <mxPoint x="410" y="432" />
            </Array>
          </mxGeometry>
        </mxCell>
        <mxCell id="H4YTOPenemWSvNGpPT6h-11" value="USB&lt;br&gt;Connector" style="rounded=1;whiteSpace=wrap;html=1;fillColor=#dae8fc;strokeColor=#6c8ebf;" parent="1" vertex="1">
          <mxGeometry x="50" y="275" width="120" height="60" as="geometry" />
        </mxCell>
        <mxCell id="H4YTOPenemWSvNGpPT6h-16" value="Inertial Measurement Unit" style="rounded=1;whiteSpace=wrap;html=1;fillColor=#e1d5e7;strokeColor=#9673a6;" parent="1" vertex="1">
          <mxGeometry x="450" y="570" width="120" height="60" as="geometry" />
        </mxCell>
        <mxCell id="H4YTOPenemWSvNGpPT6h-24" value="" style="endArrow=none;html=1;" parent="1" edge="1">
          <mxGeometry width="50" height="50" relative="1" as="geometry">
            <mxPoint x="479.94" y="405" as="sourcePoint" />
            <mxPoint x="479.94" y="375" as="targetPoint" />
          </mxGeometry>
        </mxCell>
        <mxCell id="H4YTOPenemWSvNGpPT6h-25" value="" style="endArrow=none;html=1;" parent="1" edge="1">
          <mxGeometry width="50" height="50" relative="1" as="geometry">
            <mxPoint x="480" y="385" as="sourcePoint" />
            <mxPoint x="490" y="375" as="targetPoint" />
          </mxGeometry>
        </mxCell>
        <mxCell id="H4YTOPenemWSvNGpPT6h-26" value="" style="endArrow=none;html=1;" parent="1" edge="1">
          <mxGeometry width="50" height="50" relative="1" as="geometry">
            <mxPoint x="480" y="385" as="sourcePoint" />
            <mxPoint x="470" y="375" as="targetPoint" />
            <Array as="points" />
          </mxGeometry>
        </mxCell>
        <mxCell id="H4YTOPenemWSvNGpPT6h-27" value="WIFI" style="text;html=1;strokeColor=none;fillColor=none;align=center;verticalAlign=middle;whiteSpace=wrap;rounded=0;" parent="1" vertex="1">
          <mxGeometry x="460" y="350" width="40" height="20" as="geometry" />
        </mxCell>
        <mxCell id="H4YTOPenemWSvNGpPT6h-37" value="12..24V" style="edgeStyle=orthogonalEdgeStyle;rounded=0;orthogonalLoop=1;jettySize=auto;html=1;exitX=1;exitY=0.5;exitDx=0;exitDy=0;startArrow=none;startFill=0;endArrow=classic;endFill=1;entryX=0;entryY=0.25;entryDx=0;entryDy=0;" parent="1" source="H4YTOPenemWSvNGpPT6h-35" target="H4YTOPenemWSvNGpPT6h-8" edge="1">
          <mxGeometry relative="1" as="geometry">
            <mxPoint x="230" y="230" as="targetPoint" />
          </mxGeometry>
        </mxCell>
        <mxCell id="H4YTOPenemWSvNGpPT6h-35" value="Power&lt;br&gt;Connector" style="rounded=1;whiteSpace=wrap;html=1;fillColor=#dae8fc;strokeColor=#6c8ebf;" parent="1" vertex="1">
          <mxGeometry x="50" y="200" width="120" height="60" as="geometry" />
        </mxCell>
        <mxCell id="H4YTOPenemWSvNGpPT6h-38" value="Status LEDs" style="rounded=1;whiteSpace=wrap;html=1;fillColor=#f5f5f5;strokeColor=#666666;fontColor=#333333;" parent="1" vertex="1">
          <mxGeometry x="850" y="570" width="120" height="60" as="geometry" />
        </mxCell>
        <mxCell id="tfGoTublKIeqiAUev1k0-27" style="edgeStyle=orthogonalEdgeStyle;rounded=0;orthogonalLoop=1;jettySize=auto;html=1;exitX=1;exitY=0.5;exitDx=0;exitDy=0;entryX=0;entryY=0.75;entryDx=0;entryDy=0;startArrow=classic;startFill=1;endArrow=classic;endFill=1;" edge="1" parent="1" source="H4YTOPenemWSvNGpPT6h-40" target="H4YTOPenemWSvNGpPT6h-1">
          <mxGeometry relative="1" as="geometry">
            <Array as="points">
              <mxPoint x="410" y="600" />
              <mxPoint x="410" y="488" />
            </Array>
          </mxGeometry>
        </mxCell>
        <mxCell id="H4YTOPenemWSvNGpPT6h-40" value="JTAG&lt;br&gt;Connector" style="rounded=1;whiteSpace=wrap;html=1;fillColor=#dae8fc;strokeColor=#6c8ebf;" parent="1" vertex="1">
          <mxGeometry x="50" y="570" width="120" height="60" as="geometry" />
        </mxCell>
        <mxCell id="tfGoTublKIeqiAUev1k0-26" value="5V" style="edgeStyle=orthogonalEdgeStyle;rounded=0;orthogonalLoop=1;jettySize=auto;html=1;exitX=0;exitY=0.5;exitDx=0;exitDy=0;entryX=1;entryY=0.5;entryDx=0;entryDy=0;startArrow=classic;startFill=1;endArrow=none;endFill=0;" edge="1" parent="1" target="H4YTOPenemWSvNGpPT6h-11">
          <mxGeometry relative="1" as="geometry">
            <mxPoint x="250" y="305" as="sourcePoint" />
          </mxGeometry>
        </mxCell>
        <mxCell id="H4YTOPenemWSvNGpPT6h-50" value="" style="rounded=0;whiteSpace=wrap;html=1;fillColor=#dae8fc;strokeColor=#6c8ebf;" parent="1" vertex="1">
          <mxGeometry x="700" y="242.5" width="40" height="10" as="geometry" />
        </mxCell>
        <mxCell id="H4YTOPenemWSvNGpPT6h-51" value="" style="rounded=0;whiteSpace=wrap;html=1;fillColor=#f8cecc;strokeColor=#b85450;" parent="1" vertex="1">
          <mxGeometry x="700" y="222.5" width="40" height="10" as="geometry" />
        </mxCell>
        <mxCell id="H4YTOPenemWSvNGpPT6h-52" value="" style="rounded=0;whiteSpace=wrap;html=1;fillColor=#ffe6cc;strokeColor=#d79b00;" parent="1" vertex="1">
          <mxGeometry x="700" y="262.5" width="40" height="10" as="geometry" />
        </mxCell>
        <mxCell id="H4YTOPenemWSvNGpPT6h-53" value="" style="rounded=0;whiteSpace=wrap;html=1;fillColor=#fff2cc;strokeColor=#d6b656;" parent="1" vertex="1">
          <mxGeometry x="830" y="222.5" width="40" height="10" as="geometry" />
        </mxCell>
        <mxCell id="H4YTOPenemWSvNGpPT6h-54" value="Power" style="text;html=1;strokeColor=none;fillColor=none;align=left;verticalAlign=middle;whiteSpace=wrap;rounded=0;" parent="1" vertex="1">
          <mxGeometry x="750" y="217.5" width="40" height="20" as="geometry" />
        </mxCell>
        <mxCell id="H4YTOPenemWSvNGpPT6h-55" value="Connector" style="text;html=1;strokeColor=none;fillColor=none;align=left;verticalAlign=middle;whiteSpace=wrap;rounded=0;" parent="1" vertex="1">
          <mxGeometry x="750" y="232.5" width="60" height="30" as="geometry" />
        </mxCell>
        <mxCell id="H4YTOPenemWSvNGpPT6h-56" value="Driver" style="text;html=1;strokeColor=none;fillColor=none;align=left;verticalAlign=middle;whiteSpace=wrap;rounded=0;" parent="1" vertex="1">
          <mxGeometry x="750" y="257.5" width="40" height="20" as="geometry" />
        </mxCell>
        <mxCell id="H4YTOPenemWSvNGpPT6h-58" value="" style="rounded=0;whiteSpace=wrap;html=1;fillColor=#e1d5e7;strokeColor=#9673a6;" parent="1" vertex="1">
          <mxGeometry x="830" y="242.5" width="40" height="10" as="geometry" />
        </mxCell>
        <mxCell id="H4YTOPenemWSvNGpPT6h-59" value="" style="rounded=0;whiteSpace=wrap;html=1;fillColor=#f5f5f5;strokeColor=#666666;fontColor=#333333;" parent="1" vertex="1">
          <mxGeometry x="830" y="262.5" width="40" height="10" as="geometry" />
        </mxCell>
        <mxCell id="H4YTOPenemWSvNGpPT6h-60" value="Processor" style="text;html=1;strokeColor=none;fillColor=none;align=left;verticalAlign=middle;whiteSpace=wrap;rounded=0;" parent="1" vertex="1">
          <mxGeometry x="880" y="217.5" width="60" height="20" as="geometry" />
        </mxCell>
        <mxCell id="H4YTOPenemWSvNGpPT6h-61" value="Sensor" style="text;html=1;strokeColor=none;fillColor=none;align=left;verticalAlign=middle;whiteSpace=wrap;rounded=0;" parent="1" vertex="1">
          <mxGeometry x="880" y="237.5" width="40" height="20" as="geometry" />
        </mxCell>
        <mxCell id="H4YTOPenemWSvNGpPT6h-62" value="HID" style="text;html=1;strokeColor=none;fillColor=none;align=left;verticalAlign=middle;whiteSpace=wrap;rounded=0;" parent="1" vertex="1">
          <mxGeometry x="880" y="257.5" width="40" height="20" as="geometry" />
        </mxCell>
        <mxCell id="tfGoTublKIeqiAUev1k0-2" value="" style="endArrow=none;dashed=1;html=1;dashPattern=1 3;strokeWidth=2;" edge="1" parent="1">
          <mxGeometry width="50" height="50" relative="1" as="geometry">
            <mxPoint x="40" y="525" as="sourcePoint" />
            <mxPoint x="40" y="395" as="targetPoint" />
          </mxGeometry>
        </mxCell>
        <mxCell id="tfGoTublKIeqiAUev1k0-8" value="" style="endArrow=none;dashed=1;html=1;dashPattern=1 3;strokeWidth=2;" edge="1" parent="1">
          <mxGeometry width="50" height="50" relative="1" as="geometry">
            <mxPoint x="40" y="525" as="sourcePoint" />
            <mxPoint x="310" y="525" as="targetPoint" />
          </mxGeometry>
        </mxCell>
        <mxCell id="tfGoTublKIeqiAUev1k0-9" value="" style="endArrow=none;dashed=1;html=1;dashPattern=1 3;strokeWidth=2;" edge="1" parent="1">
          <mxGeometry width="50" height="50" relative="1" as="geometry">
            <mxPoint x="40" y="395.17" as="sourcePoint" />
            <mxPoint x="310" y="395" as="targetPoint" />
          </mxGeometry>
        </mxCell>
        <mxCell id="tfGoTublKIeqiAUev1k0-11" value="Isolated" style="text;html=1;strokeColor=none;fillColor=none;align=center;verticalAlign=middle;whiteSpace=wrap;rounded=0;" vertex="1" parent="1">
          <mxGeometry x="50" y="395" width="40" height="20" as="geometry" />
        </mxCell>
        <mxCell id="tfGoTublKIeqiAUev1k0-20" value="TWAI" style="edgeStyle=orthogonalEdgeStyle;rounded=0;orthogonalLoop=1;jettySize=auto;html=1;exitX=1;exitY=0.5;exitDx=0;exitDy=0;entryX=0;entryY=0.5;entryDx=0;entryDy=0;" edge="1" parent="1" source="tfGoTublKIeqiAUev1k0-17" target="H4YTOPenemWSvNGpPT6h-1">
          <mxGeometry relative="1" as="geometry" />
        </mxCell>
        <mxCell id="tfGoTublKIeqiAUev1k0-17" value="ISO1042&lt;br&gt;CAN Transceiver" style="rounded=1;whiteSpace=wrap;html=1;fillColor=#ffe6cc;strokeColor=#d79b00;" vertex="1" parent="1">
          <mxGeometry x="250" y="430" width="120" height="60" as="geometry" />
        </mxCell>
        <mxCell id="tfGoTublKIeqiAUev1k0-19" value="CAN" style="edgeStyle=orthogonalEdgeStyle;rounded=0;orthogonalLoop=1;jettySize=auto;html=1;exitX=1;exitY=0.5;exitDx=0;exitDy=0;entryX=0;entryY=0.5;entryDx=0;entryDy=0;" edge="1" parent="1" source="tfGoTublKIeqiAUev1k0-18" target="tfGoTublKIeqiAUev1k0-17">
          <mxGeometry relative="1" as="geometry" />
        </mxCell>
        <mxCell id="tfGoTublKIeqiAUev1k0-18" value="DIN72585&lt;br&gt;Connector" style="rounded=1;whiteSpace=wrap;html=1;fillColor=#dae8fc;strokeColor=#6c8ebf;" vertex="1" parent="1">
          <mxGeometry x="50" y="430" width="120" height="60" as="geometry" />
        </mxCell>
        <mxCell id="tfGoTublKIeqiAUev1k0-34" value="ETH" style="edgeStyle=orthogonalEdgeStyle;rounded=0;orthogonalLoop=1;jettySize=auto;html=1;exitX=1;exitY=0.5;exitDx=0;exitDy=0;entryX=0;entryY=0.5;entryDx=0;entryDy=0;startArrow=classic;startFill=1;endArrow=classic;endFill=1;" edge="1" parent="1" source="tfGoTublKIeqiAUev1k0-28" target="tfGoTublKIeqiAUev1k0-30">
          <mxGeometry relative="1" as="geometry" />
        </mxCell>
        <mxCell id="tfGoTublKIeqiAUev1k0-28" value="Ethernet Driver" style="rounded=1;whiteSpace=wrap;html=1;fillColor=#ffe6cc;strokeColor=#d79b00;" vertex="1" parent="1">
          <mxGeometry x="650" y="430" width="120" height="60" as="geometry" />
        </mxCell>
        <mxCell id="tfGoTublKIeqiAUev1k0-30" value="Ethernet&lt;br&gt;Connector" style="rounded=1;whiteSpace=wrap;html=1;fillColor=#dae8fc;strokeColor=#6c8ebf;" vertex="1" parent="1">
          <mxGeometry x="850" y="430" width="120" height="60" as="geometry" />
        </mxCell>
        <mxCell id="tfGoTublKIeqiAUev1k0-35" value="" style="endArrow=none;dashed=1;html=1;dashPattern=1 3;strokeWidth=2;" edge="1" parent="1">
          <mxGeometry width="50" height="50" relative="1" as="geometry">
            <mxPoint x="979.5799999999999" y="524.5" as="sourcePoint" />
            <mxPoint x="979.5799999999999" y="394.5" as="targetPoint" />
          </mxGeometry>
        </mxCell>
        <mxCell id="tfGoTublKIeqiAUev1k0-37" value="" style="endArrow=none;dashed=1;html=1;dashPattern=1 3;strokeWidth=2;" edge="1" parent="1">
          <mxGeometry width="50" height="50" relative="1" as="geometry">
            <mxPoint x="710" y="524.5" as="sourcePoint" />
            <mxPoint x="980" y="524.5" as="targetPoint" />
          </mxGeometry>
        </mxCell>
        <mxCell id="tfGoTublKIeqiAUev1k0-38" value="" style="endArrow=none;dashed=1;html=1;dashPattern=1 3;strokeWidth=2;" edge="1" parent="1">
          <mxGeometry width="50" height="50" relative="1" as="geometry">
            <mxPoint x="710" y="394.6700000000001" as="sourcePoint" />
            <mxPoint x="980" y="394.5" as="targetPoint" />
          </mxGeometry>
        </mxCell>
        <mxCell id="tfGoTublKIeqiAUev1k0-39" value="Isolated" style="text;html=1;strokeColor=none;fillColor=none;align=center;verticalAlign=middle;whiteSpace=wrap;rounded=0;" vertex="1" parent="1">
          <mxGeometry x="720" y="394.5" width="40" height="20" as="geometry" />
        </mxCell>
      </root>
    </mxGraphModel>
  </diagram>
</mxfile>
